<svg fill="#FFFFFF" xmlns="http://www.w3.org/2000/svg"  viewBox="0 0 48 48" width="48px" height="48px"><path d="M 8.5 9 C 4.9280619 9 2 11.928062 2 15.5 L 2 32.5 C 2 36.071938 4.9280619 39 8.5 39 L 39.5 39 C 43.071938 39 46 36.071938 46 32.5 L 46 15.5 C 46 11.928062 43.071938 9 39.5 9 L 8.5 9 z M 8.5 12 L 39.5 12 C 41.450062 12 43 13.549938 43 15.5 L 43 32.5 C 43 34.450062 41.450062 36 39.5 36 L 8.5 36 C 6.5499381 36 5 34.450062 5 32.5 L 5 15.5 C 5 13.549938 6.5499381 12 8.5 12 z M 28.154297 18.5 C 25.234297 18.5 23.726563 19.943484 23.726562 21.771484 C 23.726562 25.075484 27.576172 24.625219 27.576172 26.324219 C 27.576172 26.612219 27.350047 27.285156 25.748047 27.285156 C 24.142047 27.285156 23.083984 26.675781 23.083984 26.675781 L 22.603516 28.892578 C 22.603516 28.892578 23.632094 29.5 25.621094 29.5 C 27.610094 29.5 30.369141 27.960094 30.369141 25.746094 C 30.368141 23.085094 26.517578 22.893031 26.517578 21.707031 C 26.517578 21.101031 26.999859 20.648438 28.380859 20.648438 C 29.277859 20.648438 30.304688 21.324219 30.304688 21.324219 L 30.753906 19.013672 C 30.753906 19.013672 29.439297 18.5 28.154297 18.5 z M 18.673828 18.710938 L 15.703125 18.712891 L 13.162109 26.160156 C 13.162109 26.160156 13.016078 25.525859 12.955078 25.130859 C 11.508078 21.888859 9.1621094 20.699219 9.1621094 20.699219 L 11.390625 29.169922 L 14.449219 29.169922 L 18.673828 18.710938 z M 19.771484 18.710938 L 18.125 29.171875 L 20.900391 29.171875 L 22.580078 18.710938 L 19.771484 18.710938 z M 34.849609 18.712891 L 30.292969 29.171875 L 33.048828 29.171875 L 33.619141 27.679688 L 37.09375 27.679688 L 37.392578 29.171875 L 39.917969 29.171875 L 37.769531 18.712891 L 34.849609 18.712891 z M 6.0800781 18.734375 C 6.0800781 18.734375 11.554125 20.405766 12.828125 24.509766 L 11.894531 19.763672 C 11.894531 19.763672 11.472 18.734375 10.375 18.734375 L 6.0800781 18.734375 z M 35.902344 21.726562 L 36.693359 25.679688 L 34.390625 25.679688 L 35.902344 21.726562 z"/></svg>