<svg width="11" height="13" viewBox="0 0 11 13" fill="none" xmlns="http://www.w3.org/2000/svg">
<path fill-rule="evenodd" clip-rule="evenodd" d="M3.5625 0.25H7.41875C9.1125 0.25 10.4812 0.91875 10.5 2.61875V12.1062C10.5 12.2125 10.475 12.3187 10.425 12.4125C10.3438 12.5625 10.2063 12.675 10.0375 12.725C9.875 12.775 9.69375 12.75 9.54375 12.6625L5.49375 10.6375L1.4375 12.6625C1.34438 12.7119 1.2375 12.7437 1.13125 12.7437C0.78125 12.7437 0.5 12.4562 0.5 12.1062V2.61875C0.5 0.91875 1.875 0.25 3.5625 0.25ZM3.1375 5.0125H7.84375C8.1125 5.0125 8.33125 4.79312 8.33125 4.51875C8.33125 4.24375 8.1125 4.025 7.84375 4.025H3.1375C2.86875 4.025 2.65 4.24375 2.65 4.51875C2.65 4.79312 2.86875 5.0125 3.1375 5.0125Z" fill="#199A8E"/>
</svg>
