<svg width="24" height="28" viewBox="0 0 24 28" fill="none" xmlns="http://www.w3.org/2000/svg">
<path d="M20.641 7.32548C19.0067 4.72282 16.9023 2.49101 15.0593 0.651286C14.9461 0.538213 14.8074 0.453964 14.6549 0.405618C14.5023 0.357271 14.3404 0.346239 14.1828 0.373449C14.0251 0.400659 13.8762 0.465315 13.7487 0.561986C13.6212 0.658657 13.5188 0.784519 13.45 0.928996L9.59369 9.02726L5.5592 6.33756C5.44978 6.26461 5.32704 6.21395 5.19801 6.1885C5.06897 6.16305 4.93619 6.1633 4.80726 6.18925C4.67833 6.21519 4.55578 6.26632 4.44663 6.33969C4.33749 6.41307 4.24389 6.50726 4.1712 6.61686C1.73517 10.2891 0.5 13.6143 0.5 16.4999C0.5 19.5499 1.7116 22.475 3.86827 24.6316C6.02494 26.7883 8.95001 27.9999 12 27.9999C15.05 27.9999 17.9751 26.7883 20.1317 24.6316C22.2884 22.475 23.5 19.5499 23.5 16.4999C23.5 13.3902 22.5648 10.3892 20.641 7.32548ZM19.4118 17.6525C19.1731 19.2272 18.4368 20.6842 17.3106 21.8104C16.1844 22.9367 14.7274 23.673 13.1527 23.9118C13.1018 23.9196 13.0504 23.9236 12.9988 23.9236C12.747 23.9233 12.5045 23.8279 12.3199 23.6566C12.1353 23.4853 12.0221 23.2506 12.003 22.9995C11.9838 22.7484 12.0602 22.4993 12.2167 22.302C12.3733 22.1047 12.5985 21.9737 12.8474 21.9352C13.9974 21.7499 15.0596 21.2068 15.8833 20.3832C16.7069 19.5596 17.2499 18.4973 17.4352 17.3473C17.4553 17.2175 17.5007 17.093 17.5689 16.9807C17.637 16.8685 17.7267 16.7708 17.8326 16.6932C17.9385 16.6156 18.0587 16.5596 18.1863 16.5285C18.3139 16.4973 18.4463 16.4916 18.5761 16.5116C18.7059 16.5317 18.8305 16.5771 18.9427 16.6453C19.0549 16.7134 19.1526 16.8031 19.2302 16.909C19.3078 17.0149 19.3638 17.1351 19.395 17.2627C19.4261 17.3903 19.4318 17.5227 19.4118 17.6525H19.4118Z" fill="white"/>
</svg>
