<svg width="8" height="10" viewBox="0 0 8 10" fill="none" xmlns="http://www.w3.org/2000/svg">
<path fill-rule="evenodd" clip-rule="evenodd" d="M0.458374 4.29906C0.458374 2.38245 2.05999 0.833328 3.99731 0.833328C5.94009 0.833328 7.54171 2.38245 7.54171 4.29906C7.54171 5.26487 7.19046 6.16151 6.61233 6.92148C5.97454 7.75979 5.18844 8.49019 4.3036 9.06351C4.10109 9.196 3.91832 9.206 3.69606 9.06351C2.80618 8.49019 2.02008 7.75979 1.38775 6.92148C0.809201 6.16151 0.458374 5.26487 0.458374 4.29906ZM2.83097 4.40697C2.83097 5.04904 3.3549 5.55402 3.99731 5.55402C4.64014 5.55402 5.16911 5.04904 5.16911 4.40697C5.16911 3.7699 4.64014 3.24034 3.99731 3.24034C3.3549 3.24034 2.83097 3.7699 2.83097 4.40697Z" fill="#A1A8B0"/>
</svg>
