<svg width="10" height="8" viewBox="0 0 10 8" fill="none" xmlns="http://www.w3.org/2000/svg">
<path d="M7.46599 4.96669C7.35808 5.07128 7.30849 5.22253 7.33308 5.37086L7.7035 7.42086C7.73475 7.59461 7.66141 7.77045 7.51599 7.87086C7.37349 7.97503 7.18391 7.98753 7.02849 7.9042L5.18308 6.94169C5.11891 6.90753 5.04766 6.8892 4.97474 6.88711H4.86183C4.82266 6.89295 4.78433 6.90544 4.74933 6.92461L2.90349 7.8917C2.81224 7.93753 2.70891 7.95378 2.60766 7.93753C2.36099 7.89086 2.19641 7.65586 2.23683 7.40795L2.60766 5.35794C2.63224 5.20836 2.58266 5.05628 2.47474 4.95003L0.970161 3.49169C0.844328 3.36961 0.800578 3.18628 0.858078 3.02086C0.913911 2.85586 1.05641 2.73544 1.22849 2.70836L3.29933 2.40794C3.45683 2.39169 3.59516 2.29586 3.66599 2.15419L4.57849 0.283361C4.60016 0.241695 4.62808 0.203361 4.66183 0.170861L4.69933 0.141695C4.71891 0.120028 4.74141 0.102111 4.76641 0.087528L4.81183 0.0708613L4.88266 0.0416946H5.05808C5.21474 0.0579446 5.35266 0.151695 5.42474 0.291695L6.34933 2.15419C6.41599 2.29044 6.54558 2.38503 6.69516 2.40794L8.76599 2.70836C8.94099 2.73336 9.08724 2.85419 9.14516 3.02086C9.19974 3.18794 9.15266 3.37128 9.02433 3.49169L7.46599 4.96669Z" fill="#199A8E"/>
</svg>
