<svg width="28" height="24" viewBox="0 0 28 24" fill="none" xmlns="http://www.w3.org/2000/svg">
<path d="M20 1.10381e-05C18.8358 -0.00198851 17.6873 0.2677 16.6457 0.787624C15.6041 1.30755 14.6982 2.06336 14 2.99494C13.0545 1.73687 11.7372 0.808002 10.2347 0.339765C8.73219 -0.128472 7.12048 -0.112362 5.62762 0.385817C4.13477 0.883996 2.83637 1.83901 1.91616 3.11574C0.995954 4.39246 0.500532 5.92623 0.5 7.50001C0.507963 8.69295 0.716265 9.87608 1.11621 11H6.46484L8.16797 8.44532C8.25928 8.30834 8.383 8.19602 8.52815 8.11834C8.67329 8.04066 8.83537 8.00001 9 8.00001C9.16463 8.00001 9.32671 8.04066 9.47185 8.11834C9.617 8.19602 9.74072 8.30834 9.83203 8.44532L13 13.1972L14.168 11.4453C14.2593 11.3083 14.383 11.196 14.5281 11.1183C14.6733 11.0407 14.8354 11 15 11H18C18.2652 11 18.5196 11.1054 18.7071 11.2929C18.8946 11.4804 19 11.7348 19 12C19 12.2652 18.8946 12.5196 18.7071 12.7071C18.5196 12.8947 18.2652 13 18 13H15.5352L13.832 15.5547C13.7407 15.6917 13.617 15.804 13.4719 15.8817C13.3267 15.9594 13.1646 16 13 16C12.8354 16 12.6733 15.9594 12.5281 15.8817C12.383 15.804 12.2593 15.6917 12.168 15.5547L9 10.8028L7.83203 12.5547C7.74072 12.6917 7.617 12.804 7.47185 12.8817C7.32671 12.9594 7.16463 13 7 13H1.99799C5.32935 19.2263 13.0947 23.6392 13.5114 23.8725C13.6606 23.9561 13.8289 24 14 24C14.1711 24 14.3394 23.9561 14.4886 23.8725C16.784 22.5282 18.9382 20.9563 20.9189 19.1808C25.2858 15.2506 27.5 11.3206 27.5 7.50001C27.4977 5.51158 26.7068 3.60523 25.3008 2.1992C23.8948 0.793165 21.9884 0.00226474 20 1.10381e-05Z" fill="white"/>
</svg>
