<svg width="32" height="30" viewBox="0 0 32 30" fill="none" xmlns="http://www.w3.org/2000/svg">
<path d="M30.8856 12.7162C30.1774 12.1632 29.2713 11.9709 28.3997 12.189L27.3173 12.4596C27.1294 11.6141 26.8493 10.8004 26.4844 10.0294L28.4263 8.90831C28.8746 8.64944 29.0282 8.07612 28.7694 7.62769C28.5105 7.17931 27.9373 7.0255 27.4888 7.28456L25.5457 8.40631C25.0605 7.70644 24.4957 7.05737 23.8571 6.471L24.6343 5.66725C25.2588 5.02125 25.5454 4.14044 25.4207 3.25069C25.2959 2.36081 24.7781 1.59287 24 1.14369C23.2219 0.694374 22.2979 0.629937 21.4649 0.966812C20.6319 1.30369 20.0125 1.99225 19.7654 2.85612L19.4608 3.92081C18.6398 3.66344 17.7961 3.5 16.9374 3.43112V1.19275C16.9374 0.674999 16.5177 0.255249 15.9999 0.255249C15.4822 0.255249 15.0624 0.674999 15.0624 1.19275V3.43112C14.2037 3.5 13.3602 3.6635 12.5391 3.92081L12.2345 2.85612C11.9874 1.99231 11.3679 1.30362 10.535 0.966812C9.70212 0.629937 8.77806 0.694499 7.99988 1.14369C7.22175 1.59294 6.70394 2.36087 6.57919 3.25062C6.45444 4.14037 6.74106 5.02119 7.36562 5.66719L8.14281 6.47094C7.50419 7.05737 6.93937 7.70637 6.45412 8.40625L4.51119 7.2845C4.06275 7.0255 3.48937 7.17925 3.23056 7.62762C2.97169 8.07606 3.12531 8.64944 3.57369 8.90825L5.51556 10.0294C5.15056 10.8003 4.8705 11.6141 4.68262 12.4595L3.60019 12.1889C2.72837 11.9708 1.82244 12.1632 1.11425 12.7161C0.406187 13.2692 0 14.1016 0 15.0001C0 15.8986 0.406187 16.7309 1.11437 17.2839C1.82256 17.8369 2.72875 18.0291 3.60031 17.8111L4.68269 17.5406C4.87056 18.386 5.15069 19.1997 5.51569 19.9707L3.57375 21.0918C3.12538 21.3507 2.97175 21.924 3.23062 22.3724C3.40425 22.6732 3.71938 22.8414 4.04338 22.8414C4.20237 22.8414 4.36363 22.8009 4.51125 22.7156L6.45419 21.5938C6.93937 22.2937 7.50419 22.9427 8.14281 23.5291L7.36556 24.3329C6.741 24.9789 6.45437 25.8597 6.57919 26.7494C6.704 27.6392 7.22181 28.4071 7.99994 28.8564C8.44862 29.1155 8.94581 29.2466 9.44613 29.2466C9.81338 29.2465 10.1824 29.1758 10.5351 29.0332C11.368 28.6964 11.9874 28.0078 12.2346 27.1439L12.5392 26.0792C13.3602 26.3366 14.2038 26.5001 15.0625 26.5689V28.8073C15.0625 29.3251 15.4823 29.7448 16 29.7448C16.5177 29.7448 16.9375 29.3251 16.9375 28.8073V26.5689C17.7962 26.5001 18.6397 26.3366 19.4608 26.0792L19.7654 27.1439C20.0126 28.0077 20.6319 28.6964 21.4649 29.0332C22.2979 29.3701 23.2219 29.3056 24.0001 28.8564C24.7782 28.4071 25.296 27.6392 25.4207 26.7494C25.5455 25.8597 25.2589 24.9789 24.6343 24.3329L23.8571 23.5291C24.4957 22.9427 25.0605 22.2936 25.5457 21.5938L27.4886 22.7156C27.6362 22.8008 27.7974 22.8414 27.9565 22.8414C28.2805 22.8414 28.5957 22.6732 28.7693 22.3724C29.0281 21.924 28.8745 21.3506 28.4261 21.0918L26.4842 19.9707C26.8492 19.1997 27.1293 18.386 27.3172 17.5406L28.3996 17.8111C29.2713 18.0291 30.1773 17.8368 30.8856 17.2839C31.5938 16.7309 32 15.8986 32 15.0001C32 14.1016 31.5938 13.2692 30.8856 12.7162ZM29.7318 15.8061C29.4819 16.0012 29.1621 16.0691 28.8544 15.9922L26.7964 15.4777C26.5369 15.4127 26.2621 15.4619 26.0411 15.6124C25.8201 15.7631 25.6739 16.0009 25.6394 16.2662C25.3048 18.8372 23.9818 21.1274 21.914 22.7152C21.7021 22.8779 21.5697 23.1233 21.55 23.3897C21.5304 23.6562 21.6253 23.9184 21.811 24.1104L23.2864 25.6364C23.5068 25.8643 23.608 26.1752 23.5639 26.4892C23.5199 26.8032 23.3371 27.0742 23.0625 27.2327C22.7879 27.3912 22.4618 27.414 22.1679 27.2951C21.8739 27.1763 21.6553 26.9332 21.5681 26.6284L20.9872 24.5977C20.9137 24.3407 20.7339 24.1273 20.4932 24.0111C20.2523 23.895 19.9734 23.8872 19.7265 23.9897C18.54 24.4822 17.2863 24.7319 16.0001 24.7319C14.7139 24.7319 13.4602 24.4822 12.2736 23.9897C12.0268 23.8871 11.7477 23.8949 11.5069 24.0111C11.2661 24.1272 11.0864 24.3406 11.0129 24.5977L10.432 26.6284C10.3448 26.9332 10.1262 27.1763 9.83225 27.2951C9.53831 27.4141 9.21219 27.3914 8.93756 27.2327C8.66294 27.0742 8.48025 26.8032 8.43619 26.4892C8.39213 26.1752 8.49331 25.8644 8.71369 25.6364L10.1892 24.1104C10.3749 23.9184 10.4698 23.6562 10.4502 23.3897C10.4305 23.1233 10.2981 22.8779 10.0862 22.7152C8.01844 21.1275 6.69544 18.8372 6.36081 16.2662C6.32631 16.0009 6.18013 15.7631 5.95913 15.6124C5.802 15.5054 5.61775 15.4497 5.43113 15.4497C5.35519 15.4497 5.27881 15.4589 5.20375 15.4777L3.14569 15.9922C2.838 16.0689 2.51825 16.0013 2.26837 15.8061C2.01831 15.6109 1.875 15.3171 1.875 15.0001C1.875 14.683 2.01831 14.3892 2.26825 14.1941C2.51819 13.9989 2.83787 13.9311 3.14556 14.0079L5.20363 14.5224C5.46313 14.5875 5.738 14.5383 5.95894 14.3877C6.17994 14.2371 6.32612 13.9992 6.36062 13.7339C6.69525 11.1629 8.01831 8.87262 10.0861 7.28494C10.2979 7.12219 10.4304 6.87687 10.4501 6.61037C10.4698 6.34394 10.3748 6.08175 10.1891 5.88969L8.71369 4.36381C8.49325 4.13587 8.39206 3.825 8.43612 3.51094C8.48019 3.197 8.66288 2.926 8.9375 2.76744C9.21212 2.60887 9.53813 2.58612 9.83212 2.70506C10.1261 2.82387 10.3447 3.06694 10.4319 3.37175L11.0127 5.40244C11.0862 5.6595 11.2661 5.87287 11.5068 5.98906C11.7477 6.10519 12.0266 6.113 12.2735 6.0105C13.46 5.518 14.7137 5.26831 15.9999 5.26831C17.2861 5.26831 18.5398 5.518 19.7264 6.0105C19.9732 6.113 20.2522 6.10525 20.4931 5.98906C20.7339 5.87294 20.9136 5.65956 20.9871 5.40244L21.568 3.37175C21.6553 3.06694 21.8738 2.82387 22.1677 2.70506C22.4618 2.58625 22.7878 2.60894 23.0624 2.76744C23.3371 2.926 23.5198 3.197 23.5638 3.51094C23.6079 3.82494 23.5067 4.13581 23.2863 4.36381L21.8109 5.88975C21.6251 6.08181 21.5302 6.34406 21.5499 6.61044C21.5695 6.87694 21.702 7.12225 21.9139 7.285C23.9816 8.87262 25.3047 11.1629 25.6393 13.734C25.6738 13.9992 25.82 14.2371 26.041 14.3877C26.2621 14.5384 26.5369 14.5875 26.7963 14.5225L28.8544 14.008C29.1619 13.9312 29.4818 13.9989 29.7317 14.1941C29.9817 14.3892 30.125 14.683 30.125 15.0001C30.125 15.3171 29.9817 15.6109 29.7318 15.8061Z" fill="#199A8E"/>
<mask id="path-2-inside-1_16_2988" fill="white">
<path d="M20.375 14.6874C18.8242 14.6874 17.5625 15.9491 17.5625 17.4999C17.5625 19.0508 18.8242 20.3124 20.375 20.3124C21.9258 20.3124 23.1875 19.0508 23.1875 17.4999C23.1875 15.9491 21.9258 14.6874 20.375 14.6874ZM20.375 18.4374C19.8581 18.4374 19.4375 18.0169 19.4375 17.4999C19.4375 16.983 19.8581 16.5624 20.375 16.5624C20.8919 16.5624 21.3125 16.983 21.3125 17.4999C21.3125 18.0169 20.8919 18.4374 20.375 18.4374Z"/>
</mask>
<path d="M20.375 14.6874C18.8242 14.6874 17.5625 15.9491 17.5625 17.4999C17.5625 19.0508 18.8242 20.3124 20.375 20.3124C21.9258 20.3124 23.1875 19.0508 23.1875 17.4999C23.1875 15.9491 21.9258 14.6874 20.375 14.6874ZM20.375 18.4374C19.8581 18.4374 19.4375 18.0169 19.4375 17.4999C19.4375 16.983 19.8581 16.5624 20.375 16.5624C20.8919 16.5624 21.3125 16.983 21.3125 17.4999C21.3125 18.0169 20.8919 18.4374 20.375 18.4374Z" fill="#199A8E"/>
<path d="M20.375 12.6874C17.7196 12.6874 15.5625 14.8446 15.5625 17.4999H19.5625C19.5625 17.0537 19.9288 16.6874 20.375 16.6874V12.6874ZM15.5625 17.4999C15.5625 20.1553 17.7196 22.3124 20.375 22.3124V18.3124C19.9288 18.3124 19.5625 17.9462 19.5625 17.4999H15.5625ZM20.375 22.3124C23.0304 22.3124 25.1875 20.1553 25.1875 17.4999H21.1875C21.1875 17.9462 20.8212 18.3124 20.375 18.3124V22.3124ZM25.1875 17.4999C25.1875 14.8446 23.0304 12.6874 20.375 12.6874V16.6874C20.8212 16.6874 21.1875 17.0537 21.1875 17.4999H25.1875ZM20.375 16.4374C20.9626 16.4374 21.4375 16.9123 21.4375 17.4999H17.4375C17.4375 19.1214 18.7535 20.4374 20.375 20.4374V16.4374ZM21.4375 17.4999C21.4375 18.0876 20.9626 18.5624 20.375 18.5624V14.5624C18.7535 14.5624 17.4375 15.8784 17.4375 17.4999H21.4375ZM20.375 18.5624C19.7874 18.5624 19.3125 18.0876 19.3125 17.4999H23.3125C23.3125 15.8784 21.9965 14.5624 20.375 14.5624V18.5624ZM19.3125 17.4999C19.3125 16.9123 19.7874 16.4374 20.375 16.4374V20.4374C21.9965 20.4374 23.3125 19.1214 23.3125 17.4999H19.3125Z" fill="#199A8E" mask="url(#path-2-inside-1_16_2988)"/>
<mask id="path-4-inside-2_16_2988" fill="white">
<path d="M12.25 9.68744C10.3546 9.68744 8.8125 11.2295 8.8125 13.1249C8.8125 15.0204 10.3546 16.5624 12.25 16.5624C14.1454 16.5624 15.6875 15.0204 15.6875 13.1249C15.6875 11.2295 14.1454 9.68744 12.25 9.68744ZM12.25 14.6874C11.3884 14.6874 10.6875 13.9865 10.6875 13.1249C10.6875 12.2634 11.3884 11.5624 12.25 11.5624C13.1116 11.5624 13.8125 12.2634 13.8125 13.1249C13.8125 13.9865 13.1116 14.6874 12.25 14.6874Z"/>
</mask>
<path d="M12.25 9.68744C10.3546 9.68744 8.8125 11.2295 8.8125 13.1249C8.8125 15.0204 10.3546 16.5624 12.25 16.5624C14.1454 16.5624 15.6875 15.0204 15.6875 13.1249C15.6875 11.2295 14.1454 9.68744 12.25 9.68744ZM12.25 14.6874C11.3884 14.6874 10.6875 13.9865 10.6875 13.1249C10.6875 12.2634 11.3884 11.5624 12.25 11.5624C13.1116 11.5624 13.8125 12.2634 13.8125 13.1249C13.8125 13.9865 13.1116 14.6874 12.25 14.6874Z" fill="#199A8E"/>
<path d="M12.25 7.68744C9.24999 7.68744 6.8125 10.1249 6.8125 13.1249H10.8125C10.8125 12.3341 11.4591 11.6874 12.25 11.6874V7.68744ZM6.8125 13.1249C6.8125 16.1249 9.24999 18.5624 12.25 18.5624V14.5624C11.4591 14.5624 10.8125 13.9158 10.8125 13.1249H6.8125ZM12.25 18.5624C15.25 18.5624 17.6875 16.1249 17.6875 13.1249H13.6875C13.6875 13.9158 13.0409 14.5624 12.25 14.5624V18.5624ZM17.6875 13.1249C17.6875 10.1249 15.25 7.68744 12.25 7.68744V11.6874C13.0409 11.6874 13.6875 12.3341 13.6875 13.1249H17.6875ZM12.25 12.6874C12.493 12.6874 12.6875 12.8819 12.6875 13.1249H8.6875C8.6875 15.0911 10.2839 16.6874 12.25 16.6874V12.6874ZM12.6875 13.1249C12.6875 13.3679 12.493 13.5624 12.25 13.5624V9.56244C10.2839 9.56244 8.6875 11.1588 8.6875 13.1249H12.6875ZM12.25 13.5624C12.007 13.5624 11.8125 13.3679 11.8125 13.1249H15.8125C15.8125 11.1588 14.2161 9.56244 12.25 9.56244V13.5624ZM11.8125 13.1249C11.8125 12.8819 12.007 12.6874 12.25 12.6874V16.6874C14.2161 16.6874 15.8125 15.0911 15.8125 13.1249H11.8125Z" fill="#199A8E" mask="url(#path-4-inside-2_16_2988)"/>
</svg>
